HIERARCHY
ROOT SpineBase
{
  OFFSET 0.000000 0.000000 0.000000
  CHANNELS 6 Xposition Yposition Zposition Zrotation Xrotation Yrotation
  JOINT SpineMid
  {
    OFFSET 0.000000 31.689150 0.000000
    CHANNELS 3 Zrotation Xrotation Yrotation
    JOINT SpineShoulder
    {
      OFFSET -0.087624 23.403454 -0.773989
      CHANNELS 3 Zrotation Xrotation Yrotation
      JOINT Neck
      {
        OFFSET 0.009540 7.759289 -0.632074
        CHANNELS 3 Zrotation Xrotation Yrotation
        JOINT Head
        {
          OFFSET -5.149569 13.158578 1.952236
          CHANNELS 3 Zrotation Xrotation Yrotation
          End Site
          {
            OFFSET 0 0 0
          }
        }
      }
      JOINT ShoulderLeft
      {
        OFFSET -15.810063 -4.524448 8.767193
        CHANNELS 3 Zrotation Xrotation Yrotation
        JOINT ElbowLeft
        {
          OFFSET -3.023241 -27.454466 3.101098
          CHANNELS 3 Zrotation Xrotation Yrotation
          JOINT WristLeft
          {
            OFFSET 1.328641 -25.746604 -4.247152
            CHANNELS 3 Zrotation Xrotation Yrotation
            JOINT HandLeft
            {
              OFFSET 1.140105 -7.256608 -0.067504
              CHANNELS 3 Zrotation Xrotation Yrotation
              JOINT HandTipLeft
              {
                OFFSET 1.087639 -5.521342 -1.444673
                CHANNELS 3 Zrotation Xrotation Yrotation
                End Site
                {
                  OFFSET 0 0 0
                }
              }
              JOINT ThumbLeft
              {
                OFFSET -1.300038 -1.269609 -0.942127
                CHANNELS 3 Zrotation Xrotation Yrotation
                End Site
                {
                  OFFSET 0 0 0
                }
              }
            }
          }
        }
      }
      JOINT ShoulderRight
      {
        OFFSET 12.986680 -3.285768 -8.020821
        CHANNELS 3 Zrotation Xrotation Yrotation
        JOINT ElbowRight
        {
          OFFSET 9.867736 -26.032004 -4.547882
          CHANNELS 3 Zrotation Xrotation Yrotation
          JOINT WristRight
          {
            OFFSET 2.826688 -22.073019 -6.659755
            CHANNELS 3 Zrotation Xrotation Yrotation
            JOINT HandRight
            {
              OFFSET -0.842600 -6.769578 -1.240524
              CHANNELS 3 Zrotation Xrotation Yrotation
              JOINT HandTipRight
              {
                OFFSET 0.581807 -7.157582 -1.273752
                CHANNELS 3 Zrotation Xrotation Yrotation
                End Site
                {
                  OFFSET 0 0 0
                }
              }
              JOINT ThumbRight
              {
                OFFSET 2.751360 1.505714 -1.603096
                CHANNELS 3 Zrotation Xrotation Yrotation
                End Site
                {
                  OFFSET 0 0 0
                }
              }
            }
          }
        }
      }
    }
  }
  JOINT HipLeft
  {
    OFFSET -6.441875 0.098590 -0.784240
    CHANNELS 3 Zrotation Xrotation Yrotation
    JOINT KneeLeft
    {
      OFFSET 3.309774 -39.420055 4.453904
      CHANNELS 3 Zrotation Xrotation Yrotation
      JOINT AnkleLeft
      {
        OFFSET 7.225871 -34.263861 7.163339
        CHANNELS 3 Zrotation Xrotation Yrotation
        JOINT FootLeft
        {
          OFFSET -1.779971 -8.224353 -5.078946
          CHANNELS 3 Zrotation Xrotation Yrotation
          End Site
          {
            OFFSET 0 0 0
          }
        }
      }
    }
  }
  JOINT HipRight
  {
    OFFSET 6.723558 1.715374 -6.177693
    CHANNELS 3 Zrotation Xrotation Yrotation
    JOINT KneeRight
    {
      OFFSET 7.934142 -35.774000 -3.527881
      CHANNELS 3 Zrotation Xrotation Yrotation
      JOINT AnkleRight
      {
        OFFSET 8.954541 -39.116274 7.190220
        CHANNELS 3 Zrotation Xrotation Yrotation
        JOINT FootRight
        {
          OFFSET -1.784410 -8.025740 -6.174782
          CHANNELS 3 Zrotation Xrotation Yrotation
          End Site
          {
            OFFSET 0 0 0
          }
        }
      }
    }
  }
}
MOTION
Frames: 11
Frame Time: 0.033333
-14.586553 87.050183 341.802145 -0.597736 3.630496 20.706999 -0.378454 0.341925 -20.722206 0.316033 0.104639 -0.034178 -2.022809 -2.382166 0.961957 0.000000 0.000000 0.000000 -45.684058 19.520883 -1.300147 -27.740935 -1.625535 17.218120 -20.601988 -6.972904 -30.714121 6.130649 2.900227 34.634409 0.000000 0.000000 0.000000 0.000000 0.000000 0.000000 -2.598844 35.106598 16.111465 6.019976 14.550280 -7.974264 9.505874 7.839694 -12.542993 3.926441 -8.995459 14.372751 0.000000 0.000000 0.000000 0.000000 0.000000 0.000000 0.196658 -2.077545 -20.481166 -2.641556 -2.175224 -0.844316 -0.891733 3.325440 1.971135 0.000000 0.000000 0.000000 -1.870392 -2.745587 -20.549381 -0.096963 0.001633 -0.404408 2.182664 -6.729669 1.150400 0.000000 0.000000 0.000000
-14.649477 86.786092 341.730435 -0.240341 2.853573 21.195992 -0.268569 -0.226898 -21.199367 0.460915 -0.047468 0.015453 -1.340116 -0.771861 0.829002 0.000000 0.000000 0.000000 -44.411072 4.189418 -5.133138 -28.828970 -3.554302 17.279664 -15.448462 -0.866477 -19.116428 8.937994 -11.416353 14.472266 0.000000 0.000000 0.000000 0.000000 0.000000 0.000000 16.597912 32.345732 5.518033 7.357755 11.483202 -10.793195 14.038207 12.382920 -12.257398 -5.827472 -11.322498 12.029999 0.000000 0.000000 0.000000 0.000000 0.000000 0.000000 0.070196 -1.277708 -21.004132 -2.664159 -2.169694 -0.859623 -0.663903 4.748477 1.619311 0.000000 0.000000 0.000000 -1.747223 -2.062383 -21.071484 -0.364471 0.084032 -0.363883 2.053755 -5.981552 1.084857 0.000000 0.000000 0.000000
-14.724385 86.444817 341.575482 0.345762 1.689491 21.386058 -0.149781 -0.763045 -21.368308 0.532038 -0.128574 0.067828 -0.885587 1.524839 0.795909 0.000000 0.000000 0.000000 -41.726682 -9.645282 -7.405795 -27.793937 -5.915103 15.762812 -11.619297 2.930381 -12.150633 8.519812 -21.441242 -1.148151 0.000000 0.000000 0.000000 0.000000 0.000000 0.000000 26.610364 23.806767 -1.144704 11.273632 10.254965 -11.787661 21.453314 10.412653 -9.599639 -16.027610 -9.776497 8.536186 0.000000 0.000000 0.000000 0.000000 0.000000 0.000000 -0.119399 -0.193573 -21.233545 -2.702470 -2.021120 -0.855425 -0.138491 6.261519 1.030364 0.000000 0.000000 0.000000 -1.649646 -1.006411 -21.303523 -0.676518 0.115727 -0.329877 2.214966 -5.211621 0.842423 0.000000 0.000000 0.000000
-14.805771 86.100046 341.315187 1.046315 0.430750 21.435499 -0.067792 -1.112684 -21.385518 0.525119 -0.087091 0.111783 -0.510877 3.362226 0.626915 0.000000 0.000000 0.000000 -37.696303 -19.780416 -7.815578 -20.783720 -13.014292 8.132423 -7.839762 9.805286 -4.122406 8.771102 -28.657195 -12.870454 0.000000 0.000000 0.000000 0.000000 0.000000 0.000000 30.478533 13.792278 -4.588452 18.258192 6.630942 -12.421347 25.503277 3.244873 -1.970559 -25.311058 -3.840556 5.136219 0.000000 0.000000 0.000000 0.000000 0.000000 0.000000 -0.354321 0.882080 -21.306604 -2.792780 -1.767811 -0.843501 0.045796 6.739114 0.854664 0.000000 0.000000 0.000000 -1.131352 -0.018526 -21.439615 -1.521985 0.046473 -0.269365 2.581044 -4.341773 0.476514 0.000000 0.000000 0.000000
-14.888629 85.699476 341.070703 1.776330 -0.943012 20.666202 0.007171 -1.301883 -20.570463 0.488815 -0.062050 0.151127 0.227168 4.995206 0.285703 0.000000 0.000000 0.000000 -32.491451 -25.893408 -6.525617 -16.119035 -15.819115 3.731817 -4.335837 16.341758 -0.697650 4.072037 -29.850996 -12.490044 0.000000 0.000000 0.000000 0.000000 0.000000 0.000000 31.033913 2.800232 -6.740810 21.927537 1.811783 -11.879709 26.442743 -5.278620 9.269756 -26.111339 5.657649 2.111951 0.000000 0.000000 0.000000 0.000000 0.000000 0.000000 -0.525510 2.015623 -20.530347 -2.963033 -1.502287 -0.838748 0.038686 6.849909 0.870580 0.000000 0.000000 0.000000 -1.329706 1.508850 -20.634072 -1.508368 -0.320978 -0.355871 2.762749 -4.198027 0.456603 0.000000 0.000000 0.000000
-14.953155 85.274411 340.879143 2.511628 -2.278282 19.308015 0.072621 -1.308656 -19.154206 0.439094 -0.012945 0.185331 0.796829 6.084355 -0.149625 0.000000 0.000000 0.000000 -28.883662 -29.102559 -5.113845 -12.540751 -16.935136 0.944127 -2.602680 22.418209 1.234234 -0.290999 -34.334128 -14.289910 0.000000 0.000000 0.000000 0.000000 0.000000 0.000000 30.418050 -8.903012 -8.518410 23.827130 -4.438531 -10.296904 19.684146 -13.558176 23.529048 -19.459348 23.831273 -7.737230 0.000000 0.000000 0.000000 0.000000 0.000000 0.000000 -0.758890 3.071583 -19.142036 -3.210088 -1.159353 -0.831510 -0.124269 7.405806 0.920890 0.000000 0.000000 0.000000 -1.619622 2.979045 -19.215947 -1.544058 -0.710903 -0.457049 3.570867 -3.689571 -0.080515 0.000000 0.000000 0.000000
-14.997068 84.811201 340.803496 3.153715 -3.454790 17.797058 0.107144 -1.111312 -17.584073 0.388596 0.037833 0.210397 1.421427 6.212794 -0.767163 0.000000 0.000000 0.000000 -26.417170 -30.024033 -3.914727 -11.284505 -17.777863 -0.462262 -1.190185 27.707663 2.295062 -3.410697 -39.182930 -16.678775 0.000000 0.000000 0.000000 0.000000 0.000000 0.000000 27.947942 -20.587605 -10.156929 22.727117 -8.020438 -8.170341 15.565887 -13.806050 28.429314 -13.476457 20.644482 -10.771526 0.000000 0.000000 0.000000 0.000000 0.000000 0.000000 -1.003667 4.007475 -17.582864 -3.400966 -0.845138 -0.810978 0.179884 7.353935 0.727591 0.000000 0.000000 0.000000 -1.953320 4.249820 -17.629442 -1.592075 -0.947764 -0.523672 4.322630 -2.518672 -0.808969 0.000000 0.000000 0.000000
-15.023882 84.387294 340.854758 3.623004 -4.313548 16.343795 0.112619 -0.824752 -16.083527 0.345654 0.049259 0.226712 1.874314 5.604563 -1.397243 0.000000 0.000000 0.000000 -25.299020 -29.536608 -3.226744 -12.302143 -17.098414 0.043286 0.480870 29.083853 1.850545 -4.612718 -42.277547 -18.798997 0.000000 0.000000 0.000000 0.000000 0.000000 0.000000 23.878469 -29.925545 -11.941139 21.408820 -8.384855 -6.795170 12.426438 -14.044979 31.764331 -8.942980 14.709359 -13.213204 0.000000 0.000000 0.000000 0.000000 0.000000 0.000000 -1.207472 4.671487 -16.079980 -3.552649 -0.540058 -0.776243 0.432187 7.187719 0.539490 0.000000 0.000000 0.000000 -2.028961 6.323076 -15.856386 -1.558566 -2.253216 -0.868299 5.336312 -1.090208 -1.869140 0.000000 0.000000 0.000000
-15.002067 83.969612 340.951554 4.078929 -5.141197 14.863668 0.171283 -0.827316 -14.544421 0.356871 -0.031512 0.255373 1.763319 5.743727 -1.823071 0.000000 0.000000 0.000000 -26.218741 -28.275016 -2.994141 -12.555793 -16.784748 0.397850 2.599783 29.939353 0.978453 -5.836690 -43.354026 -19.302325 0.000000 0.000000 0.000000 0.000000 0.000000 0.000000 19.549283 -35.128103 -13.903902 21.126567 -7.334566 -6.563687 10.550489 -13.804654 33.159825 -10.135072 13.425714 -11.628374 0.000000 0.000000 0.000000 0.000000 0.000000 0.000000 -1.521011 5.278429 -14.545128 -3.611306 -0.159162 -0.714159 0.904316 6.239240 0.329558 0.000000 0.000000 0.000000 -2.374327 7.747711 -14.167785 -1.499708 -2.849617 -1.030247 5.603464 -0.296536 -2.242340 0.000000 0.000000 0.000000
-14.960463 83.624148 341.124766 4.348372 -5.682924 13.707850 0.163798 -0.761998 -13.350480 0.339448 -0.086731 0.269278 1.705586 5.360818 -2.210062 0.000000 0.000000 0.000000 -28.847541 -27.291269 -3.464527 -12.560605 -16.664786 0.871871 3.645447 29.464080 0.431962 -6.208166 -43.178164 -19.582406 0.000000 0.000000 0.000000 0.000000 0.000000 0.000000 17.732773 -36.184342 -14.703895 21.231675 -5.599020 -7.133161 10.562338 -14.531578 33.599888 -11.007380 14.271393 -10.750914 0.000000 0.000000 0.000000 0.000000 0.000000 0.000000 -1.760598 5.653871 -13.350004 -3.547919 0.130784 -0.646436 0.934348 5.521593 0.318459 0.000000 0.000000 0.000000 -2.666147 8.784819 -12.832843 -1.419998 -3.299964 -1.157042 6.396839 0.775470 -3.134250 0.000000 0.000000 0.000000
-14.915535 83.379970 341.343473 4.564045 -6.163697 13.061118 0.093650 -0.785080 -12.666157 0.188790 0.043223 0.268047 1.332848 5.595583 -2.196896 0.000000 0.000000 0.000000 -26.989762 -28.125177 -2.860577 -12.107394 -17.341030 0.041950 1.989632 30.276527 1.371293 -4.351070 -43.316303 -19.636655 0.000000 0.000000 0.000000 0.000000 0.000000 0.000000 18.724925 -33.482590 -14.214905 22.108248 -3.469067 -8.742847 12.346153 -14.655679 31.914528 -11.064843 16.274584 -11.206782 0.000000 0.000000 0.000000 0.000000 0.000000 0.000000 -1.960116 6.088816 -12.664337 -3.474977 0.366248 -0.585361 0.399445 5.986589 0.456160 0.000000 0.000000 0.000000 -2.880241 9.624149 -12.046021 -1.346371 -3.507681 -1.216983 6.487654 0.924632 -3.291575 0.000000 0.000000 0.000000
